#!OML:ASF E:\acrobat2\Project_11_07_03\Capture day 1\Session 1\Acrobat.ASF
:FULLY-SPECIFIED
:DEGREES
762
root 8.66236 18.3603 -15.9457 185.909 -3.99553 -178.791
lowerback -6.11568 0.764591 1.08231
upperback -5.17613 0.573353 -0.744301
thorax -1.88408 0.0747977 -1.34169
lowerneck 2.19081 -1.9745 -0.920113
upperneck -5.21291 -2.59939 3.23655
head -1.94883 -1.39218 1.23797
rclavicle -1.05853e-014 -3.97569e-015
rhumerus -46.7208 11.2705 -92.8634
rradius 29.0634
rwrist 0.436908
rhand -5.27716 -400.891
rfingers 7.12502
rthumb 20.5271 290.174
lclavicle -1.05853e-014 -3.97569e-015
lhumerus -37.6583 -21.8382 94.3552
lradius 22.6597
lwrist 9.52984
lhand -1.63452 -370.899
lfingers 7.12502
lthumb 24.0239 17.617
rfemur 2.54917 5.91364 23.7791
rtibia 2.34285
rfoot 342.639 -14.1204
rtoes 10.018
lfemur 0.447647 -1.14461 -18.864
ltibia 3.27491
lfoot 0.69429 -11.3478
ltoes 40.945
763
root 8.65862 18.3593 -15.9501 185.897 -3.98099 -178.766
lowerback -6.11924 0.782452 1.12618
upperback -5.19112 0.593628 -0.73928
thorax -1.8966 0.0828519 -1.36024
lowerneck 2.14599 -1.98239 -0.968827
upperneck -5.13906 -2.60958 3.30563
head -1.91546 -1.3969 1.26658
rclavicle -1.09829e-014 7.95139e-016
rhumerus -46.7582 11.1505 -92.8447
rradius 29.0787
rwrist 0.577959
rhand -5.56931 -400.794
rfingers 7.12502
rthumb 20.2463 290.242
lclavicle -1.09829e-014 7.95139e-016
lhumerus -37.6681 -21.8134 94.3564
lradius 22.6428
lwrist 9.50645
lhand -1.54927 -370.796
lfingers 7.12502
lthumb 24.1056 17.7096
rfemur 2.54935 5.88469 23.7936
rtibia 2.28409
rfoot 342.809 -14.2148
rtoes 9.07518
lfemur 0.475343 -1.02926 -18.8314
ltibia 3.29276
lfoot 0.67338 -11.4853
ltoes 40.2301
764
root 8.65751 18.3589 -15.9531 185.922 -3.95326 -178.82
lowerback -6.15369 0.788345 1.05036
upperback -5.21946 0.599656 -0.746291
thorax -1.90741 0.0857145 -1.32446
lowerneck 2.24129 -2.00352 -0.943328
upperneck -5.13847 -2.63688 3.25956
head -1.93235 -1.40962 1.24975
rclavicle 8.29926e-015 -5.1684e-015
rhumerus -46.8097 11.0664 -92.845
rradius 29.1313
rwrist 0.661366
rhand -5.66797 -400.821
rfingers 7.12502
rthumb 20.1515 290.204
lclavicle 8.29926e-015 -5.1684e-015
lhumerus -37.6904 -21.8395 94.3903
lradius 22.5805
lwrist 9.56499
lhand -1.53173 -370.831
lfingers 7.12502
lthumb 24.1225 17.6727
rfemur 2.50842 5.85147 23.7258
rtibia 2.2779
rfoot 342.944 -14.3601
rtoes 7.81365
lfemur 0.453264 -0.933011 -18.8722
ltibia 3.32498
lfoot 0.604831 -11.6439
ltoes 39.2442
765
root 8.6553 18.3593 -15.9548 185.965 -3.92995 -178.879
lowerback -6.19347 0.783063 0.997346
upperback -5.23468 0.591178 -0.754678
thorax -1.90186 0.0814197 -1.30347
lowerneck 2.32804 -2.01024 -0.865966
upperneck -5.22542 -2.64769 3.09404
head -1.97826 -1.4131 1.18691
rclavicle -1.35671e-014 -3.57812e-015
rhumerus -46.7929 11.1328 -92.9049
rradius 29.1592
rwrist 0.541832
rhand -5.61583 -400.892
rfingers 7.12502
rthumb 20.2016 290.138
lclavicle -1.35671e-014 -3.57812e-015
lhumerus -37.6988 -21.8305 94.3941
lradius 22.5968
lwrist 9.65635
lhand -1.46629 -370.7
lfingers 7.12502
lthumb 24.1852 17.795
rfemur 2.45978 5.87963 23.642
rtibia 2.3808
rfoot 342.746 -14.2366
rtoes 8.41854
lfemur 0.406826 -0.935903 -18.9406
ltibia 3.35762
lfoot 0.728426 -11.637
ltoes 40.1236
766
root 8.65076 18.3604 -15.9571 185.989 -3.94383 -178.884
lowerback -6.24326 0.770763 1.03175
upperback -5.22443 0.57284 -0.753333
thorax -1.86383 0.0715534 -1.32187
lowerneck 2.29832 -1.99738 -0.826264
upperneck -5.30341 -2.63415 2.97784
head -2.00013 -1.40502 1.14354
rclavicle -1.78409e-014 5.1684e-015
rhumerus -46.7426 11.2307 -92.9596
rradius 29.1367
rwrist 0.428238
rhand -5.52672 -400.953
rfingers 7.12502
rthumb 20.2873 290.086
lclavicle -1.78409e-014 5.1684e-015
lhumerus -37.697 -21.8269 94.3896
lradius 22.695
lwrist 9.76114
lhand -1.39883 -370.519
lfingers 7.12502
lthumb 24.2499 17.9678
rfemur 2.42271 5.89419 23.6181
rtibia 2.48321
rfoot 342.582 -14.1142
rtoes 9.23492
lfemur 0.379551 -0.963618 -18.9638
ltibia 3.35861
lfoot 0.971181 -11.5343
ltoes 41.6542
767
root 8.64827 18.3615 -15.962 185.974 -3.97094 -178.885
lowerback -6.28135 0.764847 1.05002
upperback -5.20908 0.564622 -0.762621
thorax -1.82679 0.0674757 -1.34179
lowerneck 2.25752 -2.01409 -0.822125
upperneck -5.28792 -2.65723 2.97037
head -1.98738 -1.41615 1.13999
rclavicle 8.64713e-015 7.95139e-015
rhumerus -46.7391 11.3304 -93.0726
rradius 29.0766
rwrist 0.296303
rhand -5.65203 -400.989
rfingers 7.12502
rthumb 20.1668 290.038
lclavicle 8.64713e-015 7.95139e-015
lhumerus -37.7061 -21.8696 94.3916
lradius 22.723
lwrist 9.83159
lhand -1.34724 -370.498
lfingers 7.12502
lthumb 24.2993 17.9815
rfemur 2.41766 5.92031 23.6368
rtibia 2.51749
rfoot 342.684 -14.3047
rtoes 8.40754
lfemur 0.442855 -0.97864 -18.9628
ltibia 3.2938
lfoot 0.943062 -11.5912
ltoes 41.1594
